HIERARCHY
ROOT Hips
{
	OFFSET 0.000000 0.000000 0.000000
	CHANNELS 6 Xposition Yposition Zposition Zrotation Yrotation Xrotation 
	JOINT LHipJoint
	{
		OFFSET 0.000000 0.000000 0.000000
		CHANNELS 3 Zrotation Yrotation Xrotation
		JOINT LeftUpLeg
		{
			OFFSET 8.178360 -10.767780 5.035740
			CHANNELS 3 Zrotation Yrotation Xrotation
			JOINT LeftLeg
			{
				OFFSET 14.688660 -40.356780 0.000000
				CHANNELS 3 Zrotation Yrotation Xrotation
				JOINT LeftFoot
				{
					OFFSET 15.373200 -42.237540 0.000000
					CHANNELS 3 Zrotation Yrotation Xrotation
					JOINT LeftToeBase
					{
						OFFSET 0.945840 -2.598660 13.935300
						CHANNELS 3 Zrotation Yrotation Xrotation
						End Site
						{
							OFFSET 0.000000 0.000000 0.000000
						}
					}
				}
			}
		}
	}
	JOINT RHipJoint
	{
		OFFSET 0.000000 0.000000 0.000000
		CHANNELS 3 Zrotation Yrotation Xrotation
		JOINT RightUpLeg
		{
			OFFSET -7.833120 -10.767780 5.035740
			CHANNELS 3 Zrotation Yrotation Xrotation
			JOINT RightLeg
			{
				OFFSET -15.255180 -41.913300 0.000000
				CHANNELS 3 Zrotation Yrotation Xrotation
				JOINT RightFoot
				{
					OFFSET -15.409560 -42.337380 0.000000
					CHANNELS 3 Zrotation Yrotation Xrotation
					JOINT RightToeBase
					{
						OFFSET -0.988380 -2.715540 14.178900
						CHANNELS 3 Zrotation Yrotation Xrotation
						End Site
						{
							OFFSET 0.000000 0.000000 0.000000
						}
					}
				}
			}
		}
	}
	JOINT LowerBack
	{
		OFFSET 0.000000 0.000000 0.000000
		CHANNELS 3 Zrotation Yrotation Xrotation
		JOINT Spine
		{
			OFFSET 0.169620 12.213540 -1.160280
			CHANNELS 3 Zrotation Yrotation Xrotation
			JOINT Spine1
			{
				OFFSET 0.340320 12.293100 -0.256500
				CHANNELS 3 Zrotation Yrotation Xrotation
				JOINT Neck
				{
					OFFSET 0.000000 0.000000 0.000000
					CHANNELS 3 Zrotation Yrotation Xrotation
					JOINT Neck1
					{
						OFFSET -0.325020 10.477440 1.032120
						CHANNELS 3 Zrotation Yrotation Xrotation
						JOINT Head
						{
							OFFSET 0.624420 10.568160 -0.743820
							CHANNELS 3 Zrotation Yrotation Xrotation
							End Site
							{
								OFFSET 0.000000 0.000000 0.000000
							}
						}
					}
				}
				JOINT LeftShoulder
				{
					OFFSET 0.000000 0.000000 0.000000
					CHANNELS 3 Zrotation Yrotation Xrotation
					JOINT LeftArm
					{
						OFFSET 20.174460 7.205340 -1.867260
						CHANNELS 3 Zrotation Yrotation Xrotation
						JOINT LeftForeArm
						{
							OFFSET 29.898000 -0.000000 -0.000000
							CHANNELS 3 Zrotation Yrotation Xrotation
							JOINT LeftHand
							{
								OFFSET 20.901360 -0.000000 -0.000000
								CHANNELS 3 Zrotation Yrotation Xrotation
								JOINT LeftFingerBase
								{
									OFFSET 0.000000 0.000000 0.000000
									CHANNELS 3 Zrotation Yrotation Xrotation
									JOINT LeftHandIndex1
									{
										OFFSET 4.291560 -0.000000 -0.000000
										CHANNELS 3 Zrotation Yrotation Xrotation
										End Site
										{
											OFFSET 0.000000 0.000000 0.000000
										}
									}
								}
								JOINT LThumb
								{
									OFFSET 0.000000 0.000000 0.000000
									CHANNELS 3 Zrotation Yrotation Xrotation
									End Site
									{
										OFFSET 0.000000 0.000000 0.000000
									}
								}
							}
						}
					}
				}
				JOINT RightShoulder
				{
					OFFSET 0.000000 0.000000 0.000000
					CHANNELS 3 Zrotation Yrotation Xrotation
					JOINT RightArm
					{
						OFFSET -18.819600 8.244300 -2.427900
						CHANNELS 3 Zrotation Yrotation Xrotation
						JOINT RightForeArm
						{
							OFFSET -31.451400 -0.000000 -0.000000
							CHANNELS 3 Zrotation Yrotation Xrotation
							JOINT RightHand
							{
								OFFSET -20.665020 -0.000000 -0.000000
								CHANNELS 3 Zrotation Yrotation Xrotation
								JOINT RightFingerBase
								{
									OFFSET 0.000000 0.000000 0.000000
									CHANNELS 3 Zrotation Yrotation Xrotation
									JOINT RightHandIndex1
									{
										OFFSET -3.735180 -0.000000 -0.000000
										CHANNELS 3 Zrotation Yrotation Xrotation
										End Site
										{
											OFFSET 0.000000 0.000000 0.000000
										}
									}
								}
								JOINT RThumb
								{
									OFFSET 0.000000 0.000000 0.000000
									CHANNELS 3 Zrotation Yrotation Xrotation
									End Site
									{
										OFFSET 0.000000 0.000000 0.000000
									}
								}
							}
						}
					}
				}
			}
		}
	}
}
MOTION
Frames:	7
Frame Time:	0.0333333
87.211830 107.573274 -66.132396 -0.421732 0.138498 0.486884 -2.163613 2.037972 2.944137 -13.995887 -3.420364 -5.494275 -0.316393 5.493478 17.229526 0.980673 -11.026972 -0.542403 0.246000 -3.191400 -8.812000 0.140796 -1.485623 0.973905 6.800290 4.526670 -10.624878 -3.319291 -11.403610 34.330613 0.523184 -5.068362 -8.204998 -0.006900 0.537000 -1.475600 -2.008663 -0.096905 7.925158 1.444863 -0.195903 1.509393 1.444640 -0.216862 -5.018582 -13.824267 -11.680102 -16.221308 13.780835 -13.436941 11.046520 5.765700 -5.734700 11.819000 -6.442997 -0.241233 -1.553347 -80.351021 1.339299 19.686439 15.651105 -22.223746 -3.547324 -1.257345 -2.269940 3.909168 20.843492 24.716878 10.380700 -7.125000 0.000000 0.000000 -9.319600 58.544900 -3.104100 5.076527 2.020955 -0.780743 85.788170 -1.383802 9.032903 -16.573315 24.288721 -3.666504 0.338546 -0.165986 8.006731 -16.008731 8.655922 -2.561600 7.125000 0.000000 0.000000 7.578700 -20.888300 4.416600 
86.107044 107.692242 -66.046308 -0.667130 0.349302 0.642232 -2.135520 2.089862 2.974433 -13.125114 -3.872495 -5.238394 -0.394058 5.316261 16.681930 0.982089 -10.531158 -0.630503 0.427300 -4.195300 -11.626800 0.113150 -1.524151 0.986618 5.114327 4.644368 -9.967495 -2.872700 -10.754123 31.997934 0.833152 -6.195691 -5.312258 -0.005700 0.488700 -1.342800 -1.885931 -0.010356 7.767978 1.481799 -0.069664 1.441436 1.443629 -0.156054 -5.065056 -13.805608 -11.680111 -15.859873 13.806984 -13.504455 11.065523 5.771400 -5.777400 11.763000 -6.423741 -0.234907 -1.555386 -80.073368 1.609684 19.803660 15.692995 -22.312514 -3.573831 -1.235098 -2.305895 4.004392 20.531583 25.271879 10.408900 -7.125000 0.000000 0.000000 -10.002600 59.067400 -3.460000 5.087307 2.009927 -0.782226 85.972897 -1.480334 7.607837 -16.339055 23.973592 -3.558465 0.336996 -0.178828 8.452864 -16.075275 8.816466 -2.622500 7.125000 0.000000 0.000000 7.526700 -20.708700 4.416500 
84.844428 107.778930 -65.926146 -0.966775 0.544551 0.807328 -2.092167 2.182117 3.048838 -12.062136 -4.270559 -4.645855 -0.549465 4.870002 15.390649 0.948524 -9.973578 -0.119511 0.551100 -4.755800 -13.213200 0.066292 -1.574003 0.974493 3.760535 4.915410 -9.387160 -2.521901 -10.160632 29.877424 1.157854 -7.827363 -0.184065 -0.002100 -0.294000 0.807800 -1.744067 0.040740 7.553048 1.546292 0.015595 1.374073 1.476099 -0.122801 -5.070801 -13.824210 -11.653254 -15.676500 13.924206 -13.525517 11.223135 5.831300 -5.782800 11.799800 -6.422853 -0.241083 -1.544720 -79.725449 1.545137 19.366472 15.502509 -22.074606 -3.483191 -1.256271 -2.388815 4.049391 20.562994 26.539831 10.886400 -7.125000 0.000000 0.000000 -10.716900 60.433000 -4.060600 5.097986 2.009178 -0.785813 86.070984 -1.709694 6.757979 -16.191289 23.757489 -3.482699 0.370610 -0.189821 8.509041 -17.276490 8.841755 -2.841100 7.125000 0.000000 0.000000 6.638800 -20.610700 3.902800 
83.376762 107.793876 -65.840058 -1.050431 0.848720 0.925617 -2.040259 2.268464 3.124190 -11.084744 -4.518321 -4.058813 -0.698809 4.354216 13.936412 0.921294 -9.849814 0.803504 0.577200 -4.865000 -13.523900 0.025574 -1.617940 0.975124 2.456958 5.207958 -8.907758 -2.296725 -9.772079 28.476286 1.223598 -8.523580 2.396938 -0.032000 -1.154600 3.174300 -1.781745 0.078882 7.528772 1.523239 0.056426 1.244389 1.458016 -0.098559 -5.281540 -13.641708 -11.581080 -15.488490 13.593944 -13.504456 11.387486 5.689900 -5.800900 11.779800 -6.415186 -0.264279 -1.540272 -79.421304 1.712666 18.150936 15.363409 -21.905136 -3.413874 -1.272816 -2.319275 4.862894 20.401344 25.926867 10.571100 -7.125000 0.000000 0.000000 -10.524800 59.726000 -3.809200 5.099110 1.979832 -0.808600 86.309727 -2.078267 5.547060 -16.230091 23.808414 -3.491284 0.393740 -0.207951 8.673460 -18.261720 9.173527 -3.129400 7.125000 0.000000 0.000000 5.912000 -20.192300 3.526600 
81.705828 107.769960 -65.758752 -1.284296 1.285586 0.993481 -1.970927 2.356716 3.186639 -9.853314 -5.097032 -3.548594 -0.803787 3.990619 12.879905 0.904791 -9.385329 1.208632 0.732600 -5.468300 -15.249100 -0.009775 -1.654653 0.973274 1.607735 5.752782 -8.312185 -2.135534 -9.488187 27.462483 1.288929 -9.178477 3.814942 -0.035000 -1.207000 3.318600 -1.615895 0.039790 7.481718 1.482988 0.024505 1.207731 1.332064 -0.121165 -5.312914 -13.598907 -11.530978 -15.323870 13.698658 -13.479992 11.386473 5.740500 -5.784400 11.754000 -6.391252 -0.251498 -1.537248 -78.594115 2.084494 18.116168 15.330535 -21.926707 -3.411882 -1.240222 -2.314043 4.324185 20.252472 25.731155 10.416700 -7.125000 0.000000 0.000000 -10.579700 59.475300 -3.765800 5.082523 1.969266 -0.818398 86.552743 -2.319648 4.845770 -16.535233 24.243333 -3.627697 0.393527 -0.202690 8.025748 -18.221947 9.287206 -3.159300 7.125000 0.000000 0.000000 5.942400 -20.076600 3.560400 
79.857942 107.775342 -65.747994 -1.448788 1.640124 1.208135 -1.900479 2.421617 3.229900 -8.603516 -5.782535 -3.284293 -0.890535 3.675641 11.958879 0.874849 -8.836404 1.907480 0.687200 -5.299800 -14.765500 -0.058191 -1.683214 0.972268 0.921878 6.348030 -7.968818 -2.028578 -9.237813 26.608455 0.975564 -8.682354 7.909436 -0.235600 -3.123600 8.623000 -1.620479 0.007936 7.478413 1.520061 -0.022496 1.079059 1.400805 -0.142330 -5.514379 -13.495994 -11.369480 -15.137910 13.420026 -13.289976 11.432395 5.660000 -5.731700 11.672500 -6.389408 -0.285962 -1.526147 -78.274703 2.004389 16.835506 15.095915 -21.622732 -3.298086 -1.298645 -2.295985 5.020535 20.558768 25.885271 10.643900 -7.125000 0.000000 0.000000 -10.291800 59.704100 -3.718400 5.086950 1.953350 -0.835621 86.376181 -2.423519 4.527228 -16.656992 24.420587 -3.685772 0.373862 -0.193300 7.563765 -17.460057 9.256268 -3.007100 7.125000 0.000000 0.000000 6.503100 -20.159400 3.888300 
77.780490 107.531424 -65.722884 -1.353083 2.371099 0.999742 -1.820679 2.512587 3.282231 -7.621058 -6.767587 -2.540440 -0.980503 3.366299 11.045720 0.823293 -7.891143 1.895339 1.028100 -6.449900 -18.095400 -0.101691 -1.712272 0.976665 0.295643 7.027873 -6.983890 -1.947393 -9.048179 25.986616 0.584757 -7.786361 11.167449 -0.189700 -2.805200 7.737000 -1.742085 -0.114812 7.789292 1.434680 -0.194679 1.095236 1.350733 -0.232044 -5.643455 -13.603646 -11.293853 -14.999511 13.552374 -13.197665 11.533513 5.762700 -5.692000 11.691000 -6.410454 -0.306330 -1.496476 -77.658390 1.618460 15.779132 14.674930 -21.040181 -3.104246 -1.351150 -2.159917 5.548818 20.877602 24.368738 10.267100 -7.125000 0.000000 0.000000 -9.031700 58.127200 -2.916400 5.075701 1.974825 -0.839528 86.372596 -2.673129 4.458568 -17.001346 24.896926 -3.842692 0.375140 -0.193491 7.439542 -17.586577 9.401778 -3.076600 7.125000 0.000000 0.000000 6.411300 -19.999500 3.855900 
